# xmcd
#
# Track frame offsets: 
#        150
#        12807
#        23415
#        34947
#        47005
#        58042
#        68657
#        80692
#        91795
#        104677
#        115850
#        127825
#        141815
#        155215
#
# Disc length: 2137 seconds
#
# Revision: 3
# Processed by: cddbd v1.4PL0 Copyright (c) Steve Scherf et al.
# Submitted via: ExactAudioCopy v0.90b4
#
DISCID=b108570e
DTITLE=Jim Reeves - Double Goldies - Disc 2
DYEAR=1900
DGENRE=Country
TTITLE0=Bimbo
TTITLE1=Where Does A Broken Heart Go
TTITLE2=Give Me One More Kiss
TTITLE3=Shall We Gather At The River (Mother Went A Walkin')
TTITLE4=Gypsy Heart
TTITLE5=Beatin' On The Ding Dong
TTITLE6=The Wilder Your Heart Beats The Sweeter You Love
TTITLE7=El Rancho Del Rio
TTITLE8=A Woman's Love
TTITLE9=Tahiti
TTITLE10=Padre Of Old San Antone
TTITLE11=Each Beat Of My Heart
TTITLE12=I Could Cry
TTITLE13=I'll Always Love You
EXTD=
EXTT0=
EXTT1=
EXTT2=
EXTT3=
EXTT4=
EXTT5=
EXTT6=
EXTT7=
EXTT8=
EXTT9=
EXTT10=
EXTT11=
EXTT12=
EXTT13=
PLAYORDER=
